<svg width="68" height="68" viewBox="0 0 68 68" fill="none" xmlns="http://www.w3.org/2000/svg">
<rect width="68" height="68" fill="#1E1E1E"/>
<rect width="68" height="68" fill="#DA1010"/>
<path d="M33.0862 47.936C31.5262 47.936 30.4102 47.492 29.7382 46.604C29.0662 45.692 28.7302 44.36 28.7302 42.608C28.7302 40.856 29.2942 36.824 30.4222 30.512H29.8462C28.3822 32.432 27.1702 34.724 26.2102 37.388C25.2502 40.052 24.6622 42.452 24.4462 44.588C23.2702 45.692 21.9142 46.244 20.3782 46.244C19.7542 46.244 19.2022 46.028 18.7222 45.596C18.2662 45.14 17.8102 44.36 17.3542 43.256C16.4662 41.024 15.8302 36.776 15.4462 30.512H14.8702C13.6942 35.672 13.1062 39.308 13.1062 41.42C13.1062 43.532 13.4662 45.164 14.1862 46.316C12.7462 47.396 11.2462 47.936 9.68616 47.936C8.12616 47.936 7.01016 47.492 6.33816 46.604C5.66616 45.692 5.33016 44.348 5.33016 42.572C5.33016 40.772 6.08616 35.696 7.59816 27.344L5.69016 23.492C8.40216 21.74 10.8742 20.864 13.1062 20.864C14.0902 20.864 14.9182 20.972 15.5902 21.188C16.2862 21.38 16.9462 21.764 17.5702 22.34C18.2182 22.916 18.7462 23.72 19.1542 24.752C20.0902 27.08 20.7622 30.476 21.1702 34.94H21.6022C22.8502 31.268 24.5782 28.112 26.7862 25.472C27.9862 24.056 29.4142 22.94 31.0702 22.124C32.7502 21.308 34.5622 20.9 36.5062 20.9C38.3542 20.9 39.2782 22.016 39.2782 24.248C39.2782 24.992 38.8102 27.764 37.8742 32.564C36.9622 37.34 36.5062 40.184 36.5062 41.096C36.5062 43.424 36.8662 45.164 37.5862 46.316C36.1462 47.396 34.6462 47.936 33.0862 47.936ZM38.8509 35.984C38.8509 31.424 40.1229 27.776 42.6669 25.04C45.2109 22.28 48.6909 20.9 53.1069 20.9C54.5229 20.9 55.5309 21.188 56.1309 21.764C56.7549 22.316 57.0669 23.18 57.0669 24.356C57.0669 24.524 57.0429 24.848 56.9949 25.328C57.8829 24.608 58.8669 24.248 59.9469 24.248C61.4109 24.248 62.6589 24.908 63.6909 26.228C64.7469 27.524 65.2749 29.408 65.2749 31.88C65.2749 34.352 64.8789 36.62 64.0869 38.684C63.2949 40.748 62.2389 42.44 60.9189 43.76C59.6229 45.08 58.1349 46.1 56.4549 46.82C54.7989 47.54 53.0829 47.9 51.3069 47.9C47.4669 47.9 44.4309 46.808 42.1989 44.624C39.9669 42.416 38.8509 39.536 38.8509 35.984ZM56.8149 37.676C55.2789 35.804 54.5109 33.788 54.5109 31.628C54.5109 29.468 54.9909 27.728 55.9509 26.408C55.5189 26.336 55.0869 26.3 54.6549 26.3C52.9509 26.3 51.4749 26.816 50.2269 27.848C47.8749 29.768 46.6989 32.432 46.6989 35.84C46.6989 37.784 47.1309 39.404 47.9949 40.7C48.8589 41.996 50.0589 42.644 51.5949 42.644C52.7709 42.644 53.8389 42.188 54.7989 41.276C55.7829 40.34 56.4549 39.14 56.8149 37.676Z" fill="white"/>
</svg>
